<svg width="1000" height="211" viewBox="0 0 1000 211" fill="none" xmlns="http://www.w3.org/2000/svg">
<g clip-path="url(#clip0_2_3)">
<path d="M260.872 209.775C260.872 209.227 260.631 208.884 260.337 209.012C260.042 209.14 259.434 208.625 258.985 207.868C258.511 207.068 257.78 206.49 257.244 206.49C256.514 206.49 256.455 206.375 256.963 205.944C257.457 205.525 257.44 205.359 256.893 205.229C256.332 205.096 256.356 204.908 257.008 204.349C257.639 203.808 257.671 203.6 257.146 203.475C256.766 203.385 256.456 203.141 256.456 202.932C256.456 202.723 256.701 202.659 257.001 202.79C257.314 202.926 257.407 202.77 257.218 202.424C257.037 202.092 257.173 201.82 257.52 201.82C257.98 201.82 257.99 201.609 257.56 201.041C257.085 200.416 257.14 200.263 257.838 200.263C258.541 200.263 258.575 200.163 258.016 199.741C257.301 199.202 255.913 199.684 256.094 200.409C256.141 200.596 255.888 200.825 255.533 200.918C255.107 201.028 254.995 200.791 255.206 200.224C255.381 199.751 255.3 199.456 255.024 199.57C254.749 199.683 254.026 199.648 253.419 199.49C252.543 199.263 252.801 199.145 254.661 198.921C256.124 198.744 257.008 198.431 257.008 198.088C257.008 197.786 257.49 197.539 258.08 197.539C258.67 197.539 259.493 197.197 259.908 196.779C260.653 196.029 263.465 195.007 264.377 195.154C264.634 195.195 266.249 194.979 267.965 194.674C269.681 194.369 272.639 193.996 274.537 193.845C276.435 193.694 278.127 193.413 278.296 193.22C278.465 193.027 279.148 192.865 279.814 192.86C280.479 192.855 282.514 192.334 284.336 191.701C286.157 191.069 288.068 190.547 288.582 190.542C289.095 190.538 289.669 190.359 289.856 190.145C290.044 189.931 289.917 189.755 289.575 189.755C288.809 189.755 289.085 188.015 289.856 187.977C290.16 187.962 291.498 187.73 292.829 187.461C294.16 187.193 295.856 187.08 296.597 187.211C297.338 187.342 298.733 187.278 299.697 187.069C300.661 186.859 302.836 186.496 304.531 186.262C309.181 185.621 311.664 185.085 311.664 184.723C311.664 184.348 283.342 184.61 276.33 185.05C272.636 185.282 271.227 185.218 269.705 184.752C268.643 184.426 267.649 184.134 267.497 184.103C267.345 184.072 266.495 183.836 265.608 183.577C264.72 183.319 263.602 183.215 263.123 183.347C262.644 183.478 255.296 183.649 246.794 183.725C238.292 183.802 230.218 184.04 228.851 184.253C227.485 184.466 223.39 184.844 219.752 185.092C216.113 185.341 212.661 185.723 212.08 185.942C211.499 186.162 209.81 186.259 208.327 186.158C206.844 186.058 205.497 186.128 205.333 186.315C205.169 186.502 204.804 186.554 204.522 186.431C204.239 186.308 204.008 186.392 204.008 186.619C204.008 186.846 203.821 186.996 203.594 186.954C202.675 186.783 197.935 187.491 197.935 187.799C197.935 188.179 193.764 188.81 192.187 188.669C191.607 188.617 190.666 188.928 190.096 189.36C189.525 189.791 188.633 190.165 188.114 190.191C187.594 190.216 185.679 190.274 183.857 190.32C182.035 190.367 179.55 190.607 178.336 190.854C177.121 191.101 175.189 191.401 174.042 191.522C172.895 191.642 172.091 191.894 172.256 192.082C172.77 192.668 171.543 192.822 161.951 193.372C161.441 193.401 161.069 193.591 161.123 193.793C161.177 193.996 160.724 194.265 160.117 194.391C159.51 194.517 158.386 194.921 157.619 195.288C156.616 195.769 154.525 196.027 150.166 196.207C146.833 196.345 143.533 196.439 142.831 196.417C142.129 196.394 140.792 196.654 139.859 196.994C138.896 197.345 138.016 197.458 137.823 197.255C137.347 196.757 135.404 196.279 135.829 196.765C136.278 197.277 135.741 197.251 134.271 196.689C131.304 195.555 117.259 196.417 115.793 197.823C115.34 198.258 115.29 198.551 115.655 198.637C115.97 198.711 116.227 198.926 116.227 199.116C116.227 199.305 115.879 199.366 115.454 199.251C115.03 199.136 114.518 199.23 114.318 199.458C113.782 200.069 117.091 199.98 118.876 199.336C119.696 199.04 121.485 198.669 122.852 198.512C124.218 198.354 125.771 198.169 126.302 198.099C126.834 198.03 127.268 198.202 127.268 198.482C127.268 198.843 127.955 198.954 129.615 198.863C131.428 198.763 131.739 198.824 130.983 199.133C130.445 199.353 130.13 199.674 130.282 199.848C130.609 200.221 127.523 200.597 121.547 200.911C118.192 201.088 117.097 201.018 116.725 200.604C116.376 200.216 116.241 200.202 116.235 200.555C116.223 201.271 112.904 201.156 111.715 200.397C111.16 200.043 110.706 199.919 110.706 200.121C110.706 200.345 108.914 200.384 106.151 200.222C103.646 200.075 99.7332 199.858 97.4559 199.74C95.1785 199.622 92.4992 199.322 91.5018 199.073C90.5044 198.824 89.07 198.704 88.3141 198.806C87.5583 198.908 86.7833 198.812 86.5918 198.594C86.3777 198.35 86.5221 198.318 86.9663 198.512C87.4159 198.708 87.555 198.674 87.3344 198.422C86.9187 197.948 84.2856 197.519 81.1694 197.417C79.3312 197.356 78.9511 197.204 78.9012 196.508C78.8476 195.761 79.2283 195.64 82.4897 195.374C84.4964 195.21 86.7593 195.114 87.5184 195.16L88.8986 195.244L87.4337 194.683C84.8935 193.709 82.4165 193.299 77.5809 193.049C74.9999 192.916 71.2734 192.521 69.2997 192.171C64.7602 191.367 49.0088 191.306 48.3218 192.089C48.0854 192.359 47.5997 192.452 47.2425 192.296C46.3201 191.895 36.1604 191.759 36.506 192.153C36.8293 192.522 36.747 192.528 29.5249 192.683C24.4276 192.792 22.276 192.925 14.6436 193.603C11.1634 193.912 9.12861 193.735 7.13953 192.95C6.30653 192.621 6.48606 192.434 8.49216 191.542C10.1102 190.822 12.087 190.398 15.0708 190.132C20.1628 189.678 25.0211 189.107 28.5215 188.55C30.6152 188.216 31.0328 188.01 30.8134 187.419C30.6559 186.995 30.2256 186.782 29.7714 186.905C29.3459 187.02 28.9977 186.921 28.9977 186.684C28.9977 186.447 29.4325 186.25 29.9638 186.247C30.7895 186.242 30.8096 186.186 30.1019 185.864C29.5781 185.625 29.521 185.484 29.9465 185.48C30.3176 185.477 30.4763 185.212 30.3004 184.889C30.0784 184.481 30.6292 184.1 32.112 183.635L34.2425 182.968L28.8483 182.733C25.8815 182.604 21.9686 182.516 20.153 182.538C18.3374 182.56 16.8519 182.556 16.8519 182.529C16.8519 182.502 17.3488 182.076 17.9561 181.583C18.5634 181.089 19.0602 180.804 19.0602 180.948C19.0602 181.093 19.6197 180.953 20.3035 180.637C20.9872 180.321 23.3884 179.862 25.6395 179.615C27.8905 179.369 30.7162 178.923 31.9187 178.624C33.1213 178.325 35.0057 178.074 36.1062 178.066C39.1807 178.045 46.9255 176.625 44.686 176.494C44.4077 176.477 43.6831 176.383 43.0758 176.285C42.4685 176.186 41.6683 176.059 41.2975 176.002C40.0344 175.806 39.9537 175.428 41.1197 175.167C41.7597 175.024 42.9326 174.482 43.7263 173.964C44.52 173.445 45.7237 173.021 46.4013 173.021C47.0789 173.021 47.9167 172.78 48.2631 172.486C48.7808 172.046 48.3255 171.905 45.7083 171.695C43.9568 171.555 41.7784 171.355 40.8675 171.251C38.7003 171.004 30.0766 171.04 29.4843 171.298C28.6852 171.646 22.3727 171.81 22.3727 171.483C22.3727 171.311 22.7454 170.952 23.2008 170.686C23.6563 170.419 24.029 170.019 24.029 169.795C24.029 169.572 23.8655 169.504 23.6657 169.645C23.4659 169.786 22.969 169.706 22.5615 169.467C22.1513 169.227 21.8207 169.2 21.8207 169.406C21.8207 169.61 21.448 169.778 20.9925 169.778C19.6666 169.778 20.0303 169.361 21.8524 168.793C23.9013 168.153 23.6079 167.885 20.3047 167.378C17.2913 166.915 16.7169 166.19 18.8773 165.576C21.1132 164.941 31.6179 164.117 37.6229 164.105C40.4377 164.099 43.3996 163.979 44.2052 163.836L45.6697 163.577L44.0967 162.67C43.2316 162.171 42.1036 161.757 41.5902 161.749C40.2815 161.729 39.8838 161.11 40.5857 160.186C41.3269 159.209 46.1292 157.454 48.0588 157.454C48.8723 157.454 49.3426 157.286 49.1487 157.065C48.961 156.851 48.3519 156.676 47.795 156.676C46.8596 156.676 45.8197 155.704 46.0246 155.022C46.2329 154.328 37.4735 155.104 36.7404 155.844C36.1806 156.409 22.0828 157.886 20.6969 157.525L19.3772 157.181L20.661 156.697C21.367 156.43 25.9539 155.741 30.854 155.165C39.8206 154.112 42.0029 153.368 36.1273 153.368C34.322 153.368 32.6611 153.145 32.1212 152.831C31.3543 152.386 30.2925 152.373 25.8197 152.758C17.5951 153.466 12.8153 153.953 11.6944 154.196C10.9518 154.356 10.7284 154.241 10.8663 153.768C11.0672 153.078 12.7752 152.269 15.453 151.595C17.7579 151.015 16.3252 150.503 13.3781 150.854C12.1004 151.006 9.93708 151.254 8.57068 151.405L6.08631 151.679L8.15662 150.28C9.29529 149.511 10.2269 148.819 10.2269 148.743C10.2269 148.666 8.68636 148.481 6.80345 148.331C2.35153 147.975 -0.0305748 147.096 0.000265199 145.818C0.0164652 145.144 3.58804 144.24 6.9113 144.069C8.27943 143.998 11.3863 143.662 13.8154 143.322C16.2446 142.982 19.9715 142.625 22.0974 142.529C24.2233 142.432 27.4529 142.169 29.2744 141.944C40.5869 140.543 43.133 140.199 43.6206 140.002C43.9202 139.88 43.0507 139.59 41.6883 139.356C40.3173 139.121 39.2112 138.703 39.2112 138.42C39.2112 137.765 44.7756 136.343 49.8257 135.706C52.2823 135.397 54.1 134.936 54.6951 134.473C55.2277 134.058 57.0759 133.535 58.9043 133.281C63.0529 132.706 62.9409 132.16 58.4332 130.986C57.4668 130.734 56.788 130.326 56.9249 130.078C57.2363 129.515 59.7952 128.655 61.1611 128.655C61.7258 128.655 62.0342 128.48 61.8466 128.266C61.6589 128.052 59.6568 127.877 57.3973 127.877C53.6747 127.877 52.1798 127.479 53.9794 126.967C55.5874 126.51 47.5304 126.757 43.5508 127.288C38.5951 127.948 35.8987 127.672 35.8987 126.503C35.8987 125.965 37.3408 125.257 41.3177 123.846C45.0641 122.516 46.5126 121.82 46.0104 121.592C45.0567 121.157 45.998 120.713 49.7008 119.851C54.9272 118.634 59.0734 116.595 58.5291 115.508C58.1573 114.766 60.1944 114.361 68.6104 113.505C72.7937 113.079 76.9832 112.461 77.9203 112.132C78.8574 111.802 80.8413 111.43 82.3291 111.304C86.4313 110.957 94.2807 109.558 95.5084 108.954C96.1073 108.659 97.3495 108.406 98.2688 108.391C99.1881 108.376 100.437 108.213 101.044 108.029C101.924 107.763 101.699 107.683 99.9402 107.637C95.2345 107.515 92.7375 107.188 92.1136 106.612C91.6877 106.219 91.0224 106.098 90.1813 106.261C89.0775 106.475 89.0347 106.449 89.8747 106.078C90.4116 105.841 91.2811 105.697 91.807 105.758C92.3329 105.819 93.0974 105.722 93.5059 105.541C93.9454 105.347 94.8047 105.423 95.6103 105.727C96.6715 106.127 97.2024 106.139 98.0164 105.781C98.6773 105.49 99.1837 105.461 99.3951 105.702C99.5789 105.912 101.143 106.089 102.871 106.097C104.599 106.105 106.634 106.361 107.393 106.667C109.047 107.333 109.602 107.382 109.602 106.862C109.602 106.647 109.214 106.472 108.741 106.472C108.268 106.472 108.016 106.317 108.183 106.127C108.349 105.938 107.965 105.687 107.329 105.569C106.693 105.452 106.281 105.126 106.413 104.844C106.656 104.324 109.129 104.02 116.779 103.567C123.69 103.159 125.612 102.939 125.612 102.557C125.612 102.356 125.239 102.191 124.784 102.191C124.324 102.191 123.956 101.846 123.956 101.413C123.956 100.842 124.324 100.635 125.336 100.635C126.924 100.635 127.195 100.035 125.729 99.7652C125.186 99.6651 122.391 99.6767 119.518 99.791C111.15 100.124 107.803 100.013 106.053 99.3454C105.164 99.0062 104.277 98.798 104.082 98.8828C103.888 98.9676 103.831 98.5439 103.957 97.9414C104.23 96.6266 103.454 96.4215 97.7853 96.3116C94.3927 96.2457 94.1294 96.1867 95.3084 95.756C97.2481 95.0473 104.363 94.0304 108.606 93.8553C110.775 93.7658 112.823 93.4462 113.56 93.0824C115.128 92.308 116.073 92.2984 117.134 93.0458C117.611 93.3821 118.94 93.626 120.269 93.6212C124.361 93.6063 139.627 92.5118 141.7 92.0847C143.636 91.6859 143.695 91.6215 143.286 90.3451C143.029 89.5408 143.087 88.8613 143.433 88.6169C143.827 88.3393 143.81 88.0489 143.379 87.6825C142.06 86.5622 143.738 86.3303 151.795 86.5191C158.055 86.6658 160.008 86.5854 161.278 86.1288C162.622 85.6457 168.681 84.9793 172.815 84.86C173.422 84.8425 175.161 84.6715 176.68 84.4802L179.44 84.1323L176.956 83.8492C175.589 83.6935 171.49 83.6554 167.846 83.7646C164.203 83.8737 158.985 83.9397 156.253 83.9112C153.52 83.8828 148.178 84.1447 144.383 84.4934C136.873 85.1832 129.128 85.6658 125.794 85.6516C124.631 85.6467 123.524 85.7955 123.333 85.9825C123.142 86.1694 122.211 86.3447 121.263 86.372C120.315 86.3993 119.539 86.5666 119.539 86.7439C119.539 86.9211 118.98 86.9553 118.297 86.8198C117.325 86.627 117.235 86.6622 117.883 86.9822C118.597 87.3345 118.578 87.3917 117.745 87.3969C117.214 87.4004 116.779 87.5981 116.779 87.8367C116.779 88.1032 116.254 88.0282 115.418 87.6422C113.907 86.9441 113.244 86.8345 113.704 87.3586C113.87 87.5483 113.512 87.7946 112.908 87.9059C112.28 88.0217 111.81 87.9158 111.81 87.6582C111.81 87.3977 110.938 87.2082 109.74 87.2082C108.424 87.2082 107.716 87.3787 107.799 87.6761C107.888 87.9981 107.293 88.0866 105.89 87.9601C103.592 87.7526 101.325 86.8458 101.312 86.129C101.306 85.8226 101.112 85.8607 100.768 86.2353C100.353 86.6884 100.231 86.5737 100.225 85.7232C100.214 84.3196 101.124 83.1219 102.201 83.1219C102.663 83.1219 102.888 82.9468 102.701 82.7327C102.513 82.5187 102.809 82.3302 103.358 82.3138C105.177 82.2595 106.333 82.0237 107.563 81.4555C108.666 80.9461 111.258 81.1422 111.258 81.7351C111.258 81.8423 110.925 81.8399 110.518 81.7294C110.111 81.6194 109.428 81.8336 109 82.2055C108.329 82.7883 108.33 82.8357 109.006 82.5486C109.609 82.2924 109.7 82.3802 109.401 82.9292C109.169 83.3562 109.298 83.7704 109.722 83.96C110.778 84.4325 111.667 84.3436 110.706 83.8616C110.083 83.549 110.403 83.4977 111.999 83.6543C113.171 83.7693 114.57 83.6638 115.128 83.418C115.892 83.0817 116.334 83.0887 116.946 83.4467C117.598 83.8281 117.837 83.7859 118.183 83.2287C118.418 82.8487 118.571 82.4064 118.523 82.2458C118.475 82.0853 118.788 81.954 119.218 81.954C119.648 81.954 120.095 81.7537 120.21 81.5089C120.326 81.2641 121.15 81.009 122.04 80.942C122.931 80.8751 123.938 80.5527 124.277 80.2257C124.616 79.8986 125.095 79.7597 125.341 79.9168C125.587 80.074 125.633 79.8962 125.442 79.5216C125.015 78.6832 126.071 78.6049 126.526 79.4411C126.816 79.9727 126.972 79.9657 127.889 79.3808C128.868 78.7564 128.926 78.7609 128.934 79.4613C128.941 80.0824 129.029 80.108 129.477 79.6189C130.275 78.7486 130.161 78.5591 128.684 78.2977C127.746 78.1319 127.364 77.8108 127.425 77.2402C127.523 76.3312 129.446 75.6517 131.661 75.7435C133.727 75.8291 135.55 75.3282 135.55 74.6754C135.55 74.2551 136.099 74.1318 137.62 74.2101C139.846 74.3246 143.589 73.8865 144.936 73.354C145.604 73.0896 145.551 73.0208 144.66 72.9963C144.052 72.9798 142.313 72.884 140.795 72.7837C136.1 72.4734 129.856 72.4832 127.603 72.8043C126.057 73.0247 125.561 72.9877 125.838 72.6722C126.075 72.4013 125.926 72.3138 125.447 72.4433C124.993 72.5661 124.26 72.2099 123.677 71.5831C122.966 70.8178 122.873 70.4686 123.349 70.3567C123.796 70.2516 123.688 70.0195 123.02 69.6498C122.112 69.1481 122.171 69.1173 123.68 69.3022C124.591 69.4138 125.026 69.4019 124.647 69.2757C123.248 68.8111 124.018 68.3329 126.165 68.3329C127.559 68.3329 128.376 68.5123 128.381 68.8194C128.387 69.1773 128.515 69.1663 128.864 68.7778C129.163 68.4461 129.468 68.3971 129.686 68.6459C130.057 69.0686 130.76 69.0357 132.485 68.515C133.077 68.3364 134.378 68.1786 135.376 68.1643C137.664 68.1316 138.407 67.1654 136.144 67.1654C135.249 67.1654 134.426 66.9123 134.246 66.5816C134.032 66.1877 134.273 65.9979 134.988 65.9979C135.57 65.9979 136.246 65.779 136.489 65.5114C137.122 64.8138 139.372 63.9874 139.951 64.2398C140.221 64.3575 140.598 64.276 140.789 64.0584C140.98 63.8408 141.822 63.6628 142.659 63.6628C143.497 63.6628 145.532 63.3784 147.182 63.0309C149.785 62.4822 150.019 62.3561 148.955 62.0749C148.281 61.8968 143.672 61.7748 138.711 61.8038C133.751 61.8331 129.368 61.7152 128.971 61.5424C128.56 61.3634 128.087 61.4136 127.872 61.6589C127.428 62.1649 110.266 62.5485 109.839 62.0619C109.689 61.8909 109.181 61.8552 108.71 61.9827C108.13 62.1397 108.053 62.3017 108.473 62.4846C108.814 62.6332 108.338 62.7548 107.416 62.7548C106.493 62.7548 105.738 62.5874 105.738 62.3828C105.738 62.1782 105.359 62.2324 104.896 62.5031C104.433 62.7739 103.878 62.8709 103.662 62.7187C103.446 62.5666 103.887 62.1108 104.642 61.7059L106.014 60.9697L104.633 61.1568C103.424 61.3206 103.39 61.298 104.357 60.9739C105.95 60.4407 108.566 60.4959 110.1 61.0951C111.595 61.6791 113.467 61.4867 113.467 60.7489C113.467 60.4091 114.557 60.2565 117.055 60.2465C119.307 60.2376 120.644 60.3915 120.644 60.6598C120.644 60.895 120.954 60.8004 121.334 60.4497C121.832 59.9891 123.327 59.7426 126.717 59.5622C129.298 59.4248 132.978 59.0654 134.894 58.7634C136.811 58.4615 139.171 58.1976 140.139 58.177C141.107 58.1564 143.141 57.9006 144.659 57.6083C147.248 57.11 146.956 57.0901 139.967 57.2892C135.867 57.406 132.141 57.5044 131.685 57.5079C131.23 57.5114 125.516 57.9248 118.988 58.4265C112.459 58.9283 105.342 59.3923 103.171 59.4576C101 59.5231 99.3382 59.7078 99.4771 59.8684C99.6161 60.0289 98.6593 60.161 97.3509 60.1618C96.0425 60.1618 92.736 60.4171 90.0032 60.7272C85.317 61.2589 74.2935 61.8072 75.7906 61.4341C76.172 61.3391 76.3437 61.1011 76.1721 60.9054C76.0004 60.7096 76.5578 60.5411 77.4108 60.5308C78.2637 60.5208 79.8311 60.1798 80.8939 59.7736C81.9566 59.3674 83.323 58.8718 83.9303 58.6722C85.9264 58.0161 118.488 54.2188 126.165 53.7469C128.442 53.607 135.026 53.1455 140.795 52.7215C146.564 52.2976 154.179 51.7807 157.716 51.573C161.254 51.3653 165.344 50.9418 166.805 50.6318C168.724 50.2247 169.567 50.1888 169.842 50.5025C170.19 50.9002 175.999 50.7913 183.029 50.2552C184.092 50.1742 187.446 49.9985 190.482 49.8647C195.931 49.6248 204.232 48.8175 208.878 48.0758C210.19 47.8663 211.496 47.7963 211.78 47.9201C212.065 48.0439 215.911 47.7593 220.328 47.2876C226.863 46.5897 228.594 46.5188 229.622 46.9067C230.656 47.2967 231.98 47.2312 236.908 46.5467C245.111 45.4071 255.815 43.9257 261.149 43.1917C263.578 42.8574 267.107 42.3355 268.991 42.032C270.876 41.7284 273.236 41.4809 274.236 41.4819C275.236 41.4819 277.173 41.2316 278.539 40.9234C280.842 40.4039 285.557 39.8272 298.138 38.5261C304.602 37.8577 305.904 37.7034 312.492 36.8255C315.529 36.4209 320.497 35.8008 323.534 35.4475C326.57 35.0942 329.8 34.7183 330.711 34.6122C337.157 33.8612 338.385 33.8751 339.667 34.7141C340.359 35.1667 340.924 35.7359 340.924 35.9789C340.924 36.2219 341.111 36.4 341.339 36.3746C341.566 36.3495 342.32 36.3495 343.014 36.3746C344.069 36.4131 344.185 36.5398 343.724 37.1479C343.048 38.0381 343.588 38.5183 344.6 37.9264C345.739 37.2604 345.479 37.8594 344.17 38.9212C343.483 39.4781 342.103 39.9775 340.833 40.1287C338.979 40.3495 338.768 40.4712 339.361 40.9754C340.252 41.7321 339.5 41.7791 374.878 38.7616C377.307 38.5544 381.654 38.3009 384.539 38.1982C387.424 38.0956 392.641 37.8273 396.133 37.6019C399.625 37.3767 404.221 37.123 406.346 37.0382C408.472 36.9534 411.193 36.7026 412.394 36.4808C413.595 36.2591 418.358 36.0668 422.98 36.0537C427.601 36.0406 431.712 35.9517 432.114 35.8563C433.108 35.6209 446.045 35.1432 449.123 35.2282C450.484 35.2659 451.978 35.5389 452.442 35.8351C453.483 36.4989 456.133 36.5654 468.455 36.2373C474.12 36.0864 479.322 35.7434 481.03 35.408C483.259 34.9705 486.956 34.8507 496.765 34.8983C503.816 34.9327 515.548 34.8283 522.835 34.6668C537.604 34.3395 536.814 34.3358 552.096 34.8034C561.99 35.1062 567.698 35.1188 576.387 34.8569C577.906 34.8112 578.713 34.6937 578.182 34.5958C577.65 34.4979 577.216 34.2347 577.216 34.011C577.216 33.7426 578.765 33.6813 581.77 33.8309C584.275 33.9556 591.791 34.2351 598.471 34.452C605.151 34.6689 613.722 35.0261 617.518 35.2456C632.766 36.1278 638.582 36.4387 646.502 36.7951C666.309 37.6865 676.75 38.0417 687.632 38.1943C692.642 38.2646 698.853 38.4414 701.434 38.5872C704.015 38.733 707.866 38.8366 709.991 38.8174C712.117 38.7985 716.34 38.9547 719.377 39.1653C722.413 39.3758 732.247 39.6252 741.23 39.7195C750.213 39.8137 758.659 40.0616 760.001 40.2702C761.342 40.4788 764.391 40.7444 766.776 40.8603C769.162 40.9762 771.895 41.1612 772.849 41.2713C776.114 41.6478 781.21 41.9038 788.663 42.0656C795.226 42.2081 801.603 42.55 811.022 43.2647C812.541 43.3798 814.652 43.5229 815.715 43.5826C816.778 43.6424 819.511 43.8037 821.788 43.9411C824.065 44.0785 827.916 44.298 830.344 44.429C832.773 44.5599 834.885 44.721 835.037 44.7869C835.189 44.8529 836.727 45.0126 838.454 45.142C840.18 45.2714 841.957 45.4757 842.402 45.5961C842.847 45.7164 845.409 45.867 848.095 45.9307C855.475 46.1058 855.465 46.1048 855.465 46.7338C855.465 47.0549 855.728 47.3175 856.049 47.3175C856.371 47.3175 856.455 47.1127 856.235 46.8623C855.963 46.5518 856.143 46.4899 856.8 46.6677C857.33 46.8111 858.311 46.9284 858.981 46.9284C859.803 46.9284 860.226 47.1814 860.282 47.7067C860.381 48.6371 860.082 48.6817 858.974 47.9013C857.819 47.0867 856.526 47.1478 856.914 47.9986C857.106 48.4177 857.046 48.5124 856.759 48.2448C856.441 47.9484 854.886 47.8927 851.876 48.0701C846.695 48.3753 842.784 48.2913 835.59 47.7202C832.705 47.4912 828.979 47.2097 827.309 47.0945C825.639 46.9795 823.982 46.8185 823.628 46.7368C823.273 46.6552 822.839 46.854 822.662 47.1785C822.424 47.6157 821.9 47.7005 820.641 47.5055C818.663 47.1993 817.392 47.0829 812.126 46.7256C810.001 46.5814 808.113 46.399 807.932 46.3203C807.545 46.1525 800.16 46.125 790.043 46.2535C783.624 46.335 779.098 46.1123 775.721 45.5486C773.818 45.231 760.507 45.0936 760.507 45.3916C760.507 45.5448 762.184 45.7967 764.233 45.9514C766.283 46.1061 768.457 46.3016 769.064 46.3861C773.324 46.9784 784.733 47.6422 793.908 47.8316C796.033 47.8755 798.035 48.03 798.356 48.1749C798.89 48.4159 815.795 49.3451 816.702 49.1834C816.918 49.1448 818.958 49.2359 821.236 49.3856C824.757 49.6171 833.748 50.0829 836.004 50.1508C836.82 50.1752 836.916 50.6776 836.167 51.0037C835.63 51.2378 831.468 51.2918 827.702 51.1137C826.552 51.0592 825.41 50.7842 825.163 50.5025C824.829 50.1214 823.88 50.0578 821.457 50.2539C819.665 50.399 818.033 50.5873 817.83 50.6725C817.627 50.7576 817.083 50.5617 816.623 50.237C816.162 49.9123 815.654 49.7966 815.493 49.9799C815.181 50.3356 804.038 50.1841 800.809 49.7803C799.746 49.6474 797.873 49.5026 796.646 49.4585C795.419 49.4143 793.866 49.1711 793.195 48.918C792.22 48.55 791.975 48.5619 791.975 48.9774C791.975 49.2832 791.237 49.539 790.181 49.5991C785.816 49.8474 779.706 49.8238 774.861 49.5401C771.376 49.336 769.889 49.3615 770.428 49.6163C772.604 50.6434 768.522 51.15 762.163 50.6417C756.526 50.1911 755.518 50.1674 753.082 50.428C751.825 50.5625 750.062 50.5338 749.165 50.3642C746.801 49.9177 734.511 49.1268 729.038 49.0691C726.457 49.0419 722.731 48.8998 720.757 48.7535C718.783 48.6072 714.808 48.3976 711.924 48.2877C709.039 48.1778 702.207 47.8305 696.741 47.5158C691.276 47.2011 683.146 46.8259 678.676 46.6821C671.39 46.4477 670.511 46.4878 670.195 47.0687C669.894 47.6212 668.934 47.7143 663.693 47.7002C660.311 47.6913 656.426 47.8257 655.059 47.9993L652.575 48.3151L656.715 48.749C658.993 48.9876 661.725 49.1781 662.788 49.1723C663.851 49.1659 668.199 49.4328 672.45 49.7642C676.701 50.0957 684.775 50.5624 690.392 50.8014C696.01 51.0403 701.159 51.3197 701.834 51.4221C702.509 51.5246 708.099 51.7789 714.256 51.9872C725.321 52.3618 733.074 52.6674 738.976 52.9617C740.646 53.045 746.375 53.2905 751.707 53.5073C757.039 53.7241 761.759 53.9795 762.196 54.0748C762.634 54.1701 763.488 54.3805 764.095 54.5424C764.703 54.7043 766.155 54.8853 767.322 54.9448C768.489 55.0043 769.732 55.3305 770.084 55.6699C770.593 56.1599 772.031 56.3077 777.071 56.3876C780.562 56.4429 783.667 56.5959 783.97 56.7275C784.274 56.859 786.386 57.0695 788.663 57.1951C799.549 57.7955 810.432 58.2832 815.439 58.395C818.475 58.4628 824.935 58.8241 829.793 59.1979C834.651 59.5716 840.862 59.9356 843.595 60.0066C862.509 60.4984 877.616 61.1176 885.553 61.7266C888.286 61.9363 893.076 62.2205 896.198 62.3581C899.32 62.4958 902.005 62.7581 902.165 62.9411C902.326 63.1241 901.635 63.288 900.63 63.3054C899.625 63.3229 898.102 63.3729 897.245 63.4168C896.387 63.4606 895.578 63.3734 895.446 63.2228C895.314 63.0722 894.288 63.1277 893.166 63.3461C892.027 63.5677 889.529 63.6296 887.512 63.4862C885.524 63.3449 874.953 63.1607 864.022 63.0769C853.091 62.9931 840.048 62.8115 835.038 62.6733C826.107 62.4269 823.577 62.5776 829.435 63.0068C831.06 63.1259 832.51 63.3081 832.657 63.4116C833.051 63.6892 831.032 64.3759 829.357 64.534C827.406 64.7182 826.79 65.2112 828.459 65.2534C829.193 65.272 833.023 65.4504 836.97 65.6499C840.917 65.8494 848.681 66.1161 854.223 66.2426C863.332 66.4505 864.298 66.5379 864.298 67.1546C864.298 68.0106 866.521 68.213 879.915 68.5769C885.316 68.7237 889.865 68.9915 890.023 69.1721C890.182 69.3527 891.4 69.5005 892.73 69.5005C897.266 69.5005 895.995 70.5752 890.423 71.4507C888.851 71.6978 886.739 71.8677 885.73 71.8283C879.007 71.5657 880.77 72.3319 888.314 72.9506C891.35 73.1996 895.574 73.4882 897.699 73.5919C899.825 73.6956 903.675 73.955 906.256 74.1683C908.837 74.3817 914.055 74.6717 917.85 74.8129C922.524 74.9867 924.929 75.2341 925.303 75.5794C925.609 75.862 927.579 76.2024 929.72 76.3428C931.845 76.4822 933.833 76.81 934.137 77.0714C934.44 77.3327 936.503 77.6647 938.721 77.8091C940.938 77.9535 943.31 78.3289 943.99 78.6432C944.77 79.0035 947.158 79.2781 950.448 79.3861C957.541 79.6188 963.099 80.0573 963.407 80.4087C963.731 80.7779 958.896 81.3054 958.154 80.9818C957.849 80.8492 957.6 80.9066 957.6 81.1095C957.6 81.3123 958.47 81.5933 959.532 81.7338C961.631 82.0113 962.027 82.4954 960.499 82.9132C958.695 83.4061 961.219 84.187 966.895 84.8914C971.662 85.4831 974.675 86.2144 972.479 86.2468C970.415 86.2773 973.601 86.9633 976.918 87.2026C978.887 87.3446 980.787 87.6297 981.14 87.8362C981.493 88.0426 983.353 88.39 985.273 88.608C990.609 89.2137 990.551 89.7004 985.108 90.002C983.074 90.1147 981.215 90.4485 980.655 90.8014C979.871 91.2964 978.912 91.3556 975.411 91.1252C968.292 90.6565 966.883 90.7477 965.814 91.7461C965.291 92.2348 964.971 92.7571 965.102 92.9068C965.233 93.0565 967.015 93.3016 969.062 93.4514C971.108 93.6012 973.031 93.8613 973.334 94.0293C973.638 94.1973 975.067 94.4586 976.509 94.61C980.467 95.0254 979.655 95.5751 975.083 95.5751C972.856 95.5751 970.846 95.7065 970.616 95.867C970.386 96.0276 968.071 96.1589 965.47 96.1589C962.182 96.1589 960.67 96.3071 960.505 96.6454C960.343 96.9788 960.934 97.1325 962.385 97.134C963.549 97.1347 965.371 97.2968 966.433 97.4932C967.496 97.6895 970.469 97.961 973.039 98.0964C975.609 98.2318 977.992 98.5065 978.334 98.7068C978.677 98.9071 979.102 98.9689 979.278 98.8442C979.455 98.7195 980.178 98.763 980.884 98.9408C981.875 99.1904 981.287 99.3206 978.303 99.512C974.782 99.7378 970.766 100.306 968.642 100.878C967.294 101.242 969.39 101.641 975.681 102.219C978.793 102.505 981.34 102.843 981.34 102.97C981.34 103.097 982.954 103.128 984.928 103.04C987.812 102.91 988.517 102.99 988.517 103.448C988.517 104.153 986.769 105.307 985.713 105.299C985.064 105.294 985.071 105.227 985.756 104.915C986.46 104.594 986.437 104.537 985.6 104.532C985.059 104.529 984.469 104.798 984.288 105.13C984.008 105.645 983.01 105.704 977.542 105.531C970.691 105.313 969.007 105.571 970.27 106.643C972.384 108.438 981.004 110.364 986.93 110.364C990.511 110.364 992.381 110.836 992.381 111.74C992.381 112.192 991.497 112.308 988.102 112.3C985.749 112.295 982.83 112.107 981.615 111.881C980.401 111.656 974.678 111.392 968.898 111.295C958.677 111.124 958.387 111.14 958.306 111.901C958.226 112.649 958.899 113.189 960.084 113.324C960.388 113.358 962.769 113.67 965.377 114.016C973.91 115.15 981.486 115.84 989.241 116.191C996.425 116.516 998.876 116.962 998.133 117.808C997.964 118.002 997.588 118.056 997.298 117.93C997.007 117.804 996.838 117.932 996.922 118.216C997.006 118.501 996.644 118.707 996.113 118.678C995.585 118.648 995.272 118.76 995.418 118.927C995.564 119.093 994.84 119.341 993.809 119.477C991.581 119.772 991.053 120.473 992.194 121.622C992.802 122.234 992.867 122.599 992.433 122.967C991.722 123.571 992.187 123.985 993.577 123.985C994.134 123.985 994.589 124.058 994.589 124.148C994.589 124.237 994.754 124.613 994.955 124.984C995.292 125.602 994.921 125.636 990.401 125.399C987.694 125.257 984.548 125.037 983.409 124.909C981.762 124.725 981.339 124.802 981.339 125.285C981.339 125.619 980.939 126.05 980.449 126.243C979.185 126.742 979.944 128.984 981.529 129.435C982.662 129.757 982.667 129.776 981.615 129.825C980.511 129.877 980.511 129.877 981.615 130.212C982.692 130.538 981.188 130.677 975.542 130.774C973.187 130.815 971.402 131.339 971.402 131.989C971.402 132.337 970.83 132.549 969.883 132.552C969.048 132.555 967.8 132.664 967.11 132.794C965.933 133.017 965.916 133.064 966.834 133.555C967.372 133.843 968.493 134.084 969.323 134.091C970.154 134.098 972.473 134.716 974.476 135.465C976.496 136.221 978.922 136.828 979.924 136.828C983.269 136.828 988.488 137.323 988.231 137.616C988.091 137.776 988.398 137.883 988.915 137.854C989.431 137.824 989.943 138.102 990.051 138.471C990.302 139.327 987.042 140.804 985.361 140.595C984.688 140.512 984.048 140.634 983.937 140.868C983.677 141.418 977.234 141.574 974.657 141.092C973.562 140.887 967.91 140.672 962.097 140.614C952.268 140.516 949.37 140.715 953.045 141.235C953.88 141.353 955.681 141.628 957.047 141.846C958.414 142.064 960.588 142.25 961.878 142.259C963.169 142.268 964.225 142.451 964.225 142.665C964.225 142.879 964.614 143.054 965.089 143.054C965.564 143.054 966.463 143.247 967.087 143.482C968.208 143.905 968.206 143.914 966.912 144.369C964.648 145.165 965.349 145.916 969.156 146.769C971.108 147.207 972.823 147.82 972.965 148.131C973.107 148.443 973.443 148.799 973.711 148.923C974.556 149.314 973.545 150.514 972.589 150.256C972.106 150.125 971.864 150.126 972.05 150.257C972.236 150.389 971.762 150.937 970.997 151.477C969.99 152.187 968.952 152.476 967.243 152.522C965.943 152.558 964.98 152.701 965.103 152.841C965.226 152.981 962.949 153.01 960.043 152.905C955.818 152.753 954.573 152.833 953.833 153.304C952.805 153.959 947.383 154.23 944.555 153.767C943.475 153.59 942.686 153.644 942.452 153.912C942.245 154.148 941.49 154.341 940.774 154.341C939.113 154.341 937.725 154.714 937.725 155.161C937.725 155.352 938.085 155.508 938.525 155.508C938.966 155.508 939.537 155.774 939.794 156.098C940.085 156.464 942.243 156.96 945.481 157.404C951.859 158.279 956.555 159.616 956.111 160.432C955.94 160.745 955.447 160.906 955.015 160.789C954.583 160.672 954.368 160.735 954.538 160.928C954.708 161.121 954.195 161.825 953.399 162.492C952.334 163.385 951.659 163.639 950.842 163.456C950.227 163.319 949.871 163.366 950.043 163.563C950.214 163.757 949.49 163.934 948.433 163.955C947.377 163.976 944.77 164.295 942.638 164.663L938.763 165.333L939.996 166.258C940.675 166.767 941.459 167.183 941.74 167.183C942.021 167.183 943.103 167.468 944.145 167.817C945.962 168.425 946.005 168.488 945.201 169.353C944.672 169.922 944.567 170.345 944.917 170.498C945.222 170.631 945.312 170.921 945.118 171.143C944.889 171.404 944.592 171.36 944.28 171.019C943.967 170.677 943.652 170.631 943.383 170.888C943.156 171.107 942.224 171.539 941.313 171.848L939.657 172.412L941.404 172.544C943.296 172.687 944.307 173.686 942.936 174.057C942.473 174.182 941.956 174.188 941.788 174.069C941.621 173.951 940.656 174.182 939.646 174.582C938.635 174.982 936.864 175.434 935.71 175.587C934.556 175.74 933.277 176.1 932.868 176.389C931.9 177.071 931.521 177.056 926.391 176.131C921.787 175.301 920.489 175.379 918.6 176.596C917.535 177.282 917.105 177.316 914.22 176.94C910.437 176.447 903.308 176.384 903.714 176.847C903.87 177.025 905.81 177.389 908.025 177.655C913.669 178.333 914.304 178.479 913.377 178.883C911.771 179.583 918.964 181.235 925.994 181.78C927.892 181.928 929.566 182.186 929.713 182.354C929.86 182.521 929.459 183.126 928.822 183.696C927.753 184.655 927.732 184.787 928.554 185.427C929.043 185.808 929.443 186.215 929.443 186.332C929.443 186.813 920.095 186.121 917.021 185.413C912.602 184.394 903.654 183.65 902.827 184.233C902.39 184.541 902.386 184.806 902.813 185.169C903.391 185.66 904.276 185.869 911.639 187.26C913.935 187.694 915.089 188.108 915.089 188.498C915.089 188.991 914.438 189.043 910.993 188.823C908.368 188.655 906.77 188.706 906.543 188.964C906.349 189.185 906.495 189.366 906.867 189.366C907.239 189.366 907.415 189.457 907.258 189.568C906.888 189.828 899.069 188.672 898.292 188.241C897.68 187.902 889.619 187.027 887.899 187.113C887.368 187.139 886.933 187.38 886.933 187.648C886.933 187.916 886.804 188.371 886.647 188.66C886.376 189.158 893.118 190.166 904.736 191.363C906.482 191.543 908.81 191.955 909.911 192.279C911.011 192.603 912.688 192.87 913.638 192.871C916.139 192.874 919.73 193.645 919.15 194.054C918.881 194.243 915.519 194.448 911.678 194.509C907.838 194.57 904.737 194.65 904.787 194.686C904.837 194.722 906.106 195.092 907.607 195.507C910.22 196.231 910.282 196.283 909.088 196.733C908.153 197.086 907.154 197.099 905.089 196.787C901.729 196.279 901.287 196.273 901.287 196.729C901.287 196.926 902.029 197.203 902.937 197.343C905.955 197.81 905.301 198.317 901.68 198.317C899.573 198.317 897.442 198.564 896.407 198.928C895.36 199.296 894.185 199.43 893.448 199.265C891.873 198.913 865.952 198.779 866.255 199.124C866.897 199.857 859.655 199.853 853.475 199.117C840.96 197.628 830.312 196.782 823.443 196.73C819.648 196.701 813.934 196.437 810.746 196.143C807.557 195.849 801.877 195.428 798.123 195.207C794.37 194.986 791.14 194.738 790.946 194.656C790.753 194.574 788.731 194.395 786.454 194.258C784.177 194.121 781.444 193.935 780.381 193.845C778.169 193.656 768.096 193.26 760.782 193.075C755.492 192.94 747.452 192.582 742.011 192.239C740.19 192.124 733.109 191.955 726.277 191.864C719.445 191.772 711.371 191.554 708.334 191.379C705.298 191.203 696.9 191.077 689.673 191.099C678.742 191.131 676.443 191.234 676.009 191.711C675.565 192.198 675.41 192.202 674.989 191.741C674.659 191.38 673.948 191.275 672.861 191.428C671.962 191.555 670.959 191.467 670.626 191.233C670.293 190.998 669.201 190.77 668.199 190.724C667.196 190.679 665.879 190.539 665.272 190.412C661.963 189.721 658.516 189.521 657.128 189.937C656.013 190.272 653.23 189.877 653.615 189.438C653.756 189.277 651.096 189.097 647.702 189.04C638.564 188.885 637.617 188.814 636.583 188.209C635.742 187.717 635.658 187.74 635.824 188.414C635.951 188.927 635.745 189.127 635.184 189.033C634.728 188.957 633.796 188.891 633.113 188.887C632.43 188.883 631.871 188.745 631.871 188.58C631.871 188.416 631.471 188.173 630.981 188.041C630.335 187.866 630.183 187.967 630.423 188.408C630.651 188.828 630.542 188.922 630.07 188.711C629.694 188.542 627.027 188.349 624.142 188.282C618.075 188.141 618.977 188.143 590.465 188.213C578.471 188.243 567.122 188.141 565.244 187.987C563.367 187.832 561.413 187.819 560.902 187.957C559.963 188.211 541.928 188.713 536.387 188.639C532.053 188.581 527.139 190.377 529.872 191.019C530.28 191.115 529.998 191.39 529.182 191.694C528.424 191.976 527.666 192.354 527.497 192.535C526.888 193.188 522.2 193.552 520.869 193.05C520.03 192.733 517.807 192.62 514.311 192.715C511.403 192.794 501.849 192.95 493.081 193.063C484.313 193.176 476.536 193.375 475.799 193.506C475.061 193.636 471.927 193.77 468.834 193.803C465.741 193.835 462.713 194.059 462.106 194.3C461.019 194.73 455.899 195.437 455.042 195.275C453.986 195.075 452.024 195.125 450.236 195.398C449.173 195.56 447.807 195.663 447.2 195.627C446.592 195.591 445.599 195.531 444.991 195.493C444.384 195.456 441.527 195.63 438.642 195.882C435.758 196.133 432.323 196.335 431.011 196.331C429.698 196.327 428.332 196.488 427.974 196.691C427.617 196.893 426.517 197.181 425.53 197.33C424.062 197.551 423.736 197.48 423.736 196.941C423.736 196.358 423.279 196.314 419.733 196.558C417.532 196.71 411.756 196.874 406.898 196.923C402.039 196.973 396.726 197.219 395.09 197.47C393.455 197.722 391.996 197.927 391.848 197.927C391.701 197.927 391.889 198.19 392.267 198.511C392.645 198.832 393.794 199.095 394.819 199.095C395.845 199.095 396.684 199.168 396.684 199.258C396.684 199.347 396.835 199.697 397.019 200.036C397.479 200.88 395.924 200.839 394.698 199.974C394.003 199.484 393.673 199.431 393.507 199.782C393.381 200.049 393.05 200.168 392.772 200.047C392.495 199.926 392.267 199.969 392.267 200.142C392.267 200.315 391.708 200.478 391.025 200.505C390.342 200.531 386.553 200.751 382.606 200.993C378.659 201.235 370.709 201.504 364.939 201.589C359.17 201.675 353.829 201.841 353.07 201.958C350.498 202.356 336.356 203.278 328.778 203.542C314.736 204.032 304.09 205.448 301.895 207.117C301.209 207.64 299.999 208.061 299.13 208.081C291.986 208.245 282.065 208.769 277.71 209.214C275.889 209.399 272.693 209.659 270.608 209.79C268.524 209.921 265.571 210.196 264.046 210.399C262.521 210.603 261.183 210.77 261.073 210.77C260.962 210.77 260.872 210.323 260.872 209.775ZM260.872 206.234C260.872 205.808 260.628 205.776 259.789 206.093C259.141 206.337 258.834 206.738 259.025 207.089C259.271 207.542 259.52 207.575 260.108 207.23C260.528 206.985 260.872 206.536 260.872 206.234ZM353.898 200.446C356.058 199.9 356.003 199.892 351.414 200.081C340.903 200.516 337.612 200.736 337.612 201.004C337.612 201.512 351.575 201.033 353.898 200.446ZM97.4559 195.746C97.4559 195.662 97.0832 195.593 96.6278 195.593C96.1723 195.593 95.7996 195.763 95.7996 195.97C95.7996 196.177 96.1723 196.246 96.6278 196.123C97.0832 196 97.4559 195.83 97.4559 195.746ZM137.482 194.425C137.675 194.206 137.222 194.036 136.443 194.036C135.684 194.036 134.909 194.211 134.721 194.425C134.529 194.645 134.981 194.815 135.76 194.815C136.52 194.815 137.294 194.64 137.482 194.425ZM111.258 192.434C111.258 192.033 110.597 191.995 109.371 192.327C107.985 192.701 108.357 193.169 109.878 192.964C110.637 192.862 111.258 192.623 111.258 192.434ZM423.646 192.371C425.53 192.001 425.788 191.859 424.86 191.704C423.387 191.458 405.822 191.978 396.408 192.546C393.85 192.701 413.605 193.078 417.663 192.952C419.637 192.891 422.329 192.629 423.646 192.371ZM442.783 191.173C443.39 191.072 442.272 191.003 440.299 191.021C435.588 191.062 433.723 191.42 436.71 191.709C437.925 191.826 439.54 191.795 440.299 191.64C441.058 191.484 442.176 191.274 442.783 191.173ZM90.462 191.287C91.5988 191.264 91.5914 191.244 90.3148 190.884C88.8096 190.46 87.5184 190.671 87.5184 191.342C87.5184 191.586 87.9105 191.679 88.3917 191.548C88.872 191.418 89.8036 191.301 90.462 191.287ZM451.077 190.849C451.224 190.745 450.242 190.631 448.893 190.595C447.544 190.559 446.269 190.725 446.059 190.964C445.791 191.27 446.44 191.346 448.243 191.219C449.654 191.12 450.929 190.953 451.077 190.849ZM882.792 186.253C883.004 186.012 882.123 185.881 880.479 185.91C878.122 185.951 878.01 185.989 879.48 186.253C881.896 186.686 882.413 186.686 882.792 186.253ZM31.8617 180.539C31.4631 180.426 30.987 180.44 30.8035 180.569C30.62 180.699 30.9461 180.791 31.5281 180.774C32.1713 180.755 32.3021 180.663 31.8617 180.539ZM38.3831 180.026C39.4927 179.776 39.5468 179.712 38.6592 179.703C38.0519 179.697 37.0581 179.842 36.4508 180.026C35.044 180.452 36.4954 180.452 38.3831 180.026ZM45.7911 180.179C46.2714 180.049 46.6644 179.628 46.6644 179.243C46.6644 178.647 46.3171 178.574 44.318 178.75C41.7812 178.974 40.1257 179.637 42.1047 179.637C42.7548 179.637 43.4402 179.812 43.6279 180.026C44.0206 180.474 44.5596 180.512 45.7911 180.179ZM942.693 173.41C942.693 173.196 942.259 173.024 941.727 173.027C940.902 173.032 940.881 173.088 941.589 173.41C942.631 173.885 942.693 173.885 942.693 173.41ZM59.4657 157.577C59.0672 157.465 58.591 157.479 58.4076 157.608C58.2241 157.737 58.5502 157.829 59.1322 157.813C59.7753 157.794 59.9062 157.702 59.4657 157.577ZM54.9456 156.442C54.9456 155.808 53.4101 155.736 51.393 156.277C49.197 156.865 49.7182 157.28 52.4612 157.126C54.1279 157.032 54.9456 156.807 54.9456 156.442ZM65.2003 156.723C64.649 156.094 62.6747 155.934 62.6747 156.518C62.6747 156.845 63.2415 157.065 64.0875 157.065C64.8645 157.065 65.3653 156.911 65.2003 156.723ZM61.0185 156.287C61.6345 156.006 61.3163 155.908 59.7763 155.903C58.6376 155.9 57.706 156.073 57.706 156.287C57.706 156.782 59.9304 156.782 61.0185 156.287ZM981.339 110.753C981.339 110.539 981.091 110.364 980.787 110.364C980.483 110.364 980.235 110.539 980.235 110.753C980.235 110.967 980.483 111.142 980.787 111.142C981.091 111.142 981.339 110.967 981.339 110.753ZM985.342 103.49C984.962 103.382 984.341 103.382 983.962 103.49C983.582 103.598 983.893 103.687 984.652 103.687C985.411 103.687 985.721 103.598 985.342 103.49ZM977.06 98.8034C976.377 98.7107 975.259 98.7107 974.576 98.8034C973.893 98.8962 974.452 98.9721 975.818 98.9721C977.185 98.9721 977.744 98.8962 977.06 98.8034ZM951.527 95.6617C951.527 95.4951 949.477 95.1511 946.972 94.8973C944.467 94.6434 941.819 94.3143 941.089 94.166C940.264 93.9985 939.888 94.0422 940.098 94.2813C940.284 94.493 942.62 94.8891 945.291 95.1614C947.961 95.4337 950.395 95.712 950.699 95.7799C951.002 95.8478 951.313 95.9171 951.389 95.934C951.465 95.9508 951.527 95.8284 951.527 95.6617ZM146.315 92.0729C147.301 91.7743 147.26 91.7356 145.934 91.7111C145.117 91.6961 144.294 91.8589 144.107 92.0729C143.699 92.5376 144.781 92.5376 146.315 92.0729ZM947.662 89.7929C947.662 89.609 945.169 89.2588 942.121 89.0145C935.258 88.4643 934.025 88.4532 934.727 88.9479C935.021 89.1555 937.99 89.4813 941.324 89.6719C944.658 89.8624 947.448 90.0428 947.524 90.0727C947.6 90.1027 947.662 89.9767 947.662 89.7929ZM115.342 85.1327C115.498 84.9543 115.264 84.8084 114.822 84.8084C114.38 84.8084 114.018 84.9543 114.018 85.1327C114.018 85.3111 114.252 85.457 114.538 85.457C114.824 85.457 115.185 85.3111 115.342 85.1327ZM189.205 84.4128C188.806 84.3004 188.33 84.3142 188.147 84.4435C187.963 84.5728 188.289 84.6648 188.871 84.6479C189.515 84.6291 189.645 84.537 189.205 84.4128ZM103.529 83.9003C103.529 83.6863 103.094 83.5138 102.563 83.5171C101.737 83.522 101.717 83.5778 102.425 83.9003C103.467 84.3749 103.529 84.3749 103.529 83.9003ZM105.737 83.2936C105.737 83.1992 105.489 83.122 105.185 83.122C104.881 83.122 104.633 83.3074 104.633 83.5341C104.633 83.7608 104.881 83.838 105.185 83.7057C105.489 83.5734 105.737 83.388 105.737 83.2936ZM137.206 80.5839C137.965 80.4343 140.325 80.1658 142.451 79.9871C144.576 79.8085 147.185 79.4772 148.247 79.251C149.31 79.0247 150.18 78.8542 150.18 78.8721C150.18 79.0213 153.961 78.1886 155.839 77.626C158.687 76.7724 158.867 76.1169 156.253 76.1169C154.903 76.1169 154.32 75.9408 154.32 75.5331C154.32 74.9346 156.791 74.698 160.893 74.9038C162.68 74.9934 167.778 74.3226 168.945 73.8444C169.817 73.4872 167.031 73.0844 163.396 73.0423C161.032 73.0147 159.017 73.2888 156.529 73.9764C154.592 74.5115 152.495 74.952 151.869 74.9553C150.963 74.9602 150.895 75.034 151.534 75.3188C151.975 75.5154 152.533 75.59 152.776 75.4844C153.018 75.3789 153.216 75.4583 153.216 75.6605C153.216 76.009 152.008 76.255 147.791 76.7651C146.781 76.8873 145.82 77.2337 145.656 77.5349C145.412 77.9827 145.2 77.9921 144.491 77.5862C143.765 77.1705 143.677 77.1894 143.949 77.703C144.187 78.1516 143.955 78.2988 143.086 78.2512C142.433 78.2155 141.074 78.3451 140.067 78.5393C138.796 78.7841 137.992 78.7506 137.444 78.4299C137 78.1698 136.654 78.1354 136.654 78.3514C136.654 78.7807 132.447 80.0086 130.976 80.0086C130.455 80.0086 130.029 80.248 130.029 80.5407C130.029 80.9368 130.769 81.045 132.927 80.9643C134.521 80.9047 136.447 80.7335 137.206 80.5839ZM159.917 66.4701C159.518 66.3765 158.93 66.4849 158.609 66.7111C158.199 66.9999 158.415 67.0506 159.333 66.8813C160.08 66.7437 160.33 66.5673 159.917 66.4701ZM826.755 64.9281C826.755 64.7676 826 64.599 825.079 64.5535C824.12 64.5062 823.544 64.631 823.732 64.8454C824.117 65.2844 826.757 65.3566 826.755 64.9281ZM161.497 62.4764L162.878 62.4465L161.59 62.0826C160.135 61.6715 157.633 61.9882 157.633 62.5834C157.633 62.8003 158.188 62.8708 158.875 62.7411C159.558 62.612 160.738 62.4929 161.497 62.4764ZM822.339 62.5607C822.339 62.3823 821.967 62.2363 821.511 62.2363C821.056 62.2363 820.683 62.3823 820.683 62.5607C820.683 62.739 821.056 62.885 821.511 62.885C821.967 62.885 822.339 62.739 822.339 62.5607ZM824.651 62.6191C824.253 62.5067 823.777 62.5205 823.593 62.6498C823.41 62.7791 823.736 62.8711 824.318 62.8542C824.961 62.8356 825.092 62.7433 824.651 62.6191ZM170.986 61.8407C170.588 61.7283 170.112 61.7422 169.928 61.8714C169.745 62.0007 170.071 62.0927 170.653 62.0758C171.296 62.0572 171.427 61.965 170.986 61.8407ZM109.05 61.3282C109.05 61.1142 108.801 60.9391 108.498 60.9391C108.194 60.9391 107.945 61.1142 107.945 61.3282C107.945 61.5423 108.194 61.7174 108.498 61.7174C108.801 61.7174 109.05 61.5423 109.05 61.3282ZM123.404 60.3077C123.404 59.8717 122.367 60.254 122.07 60.7995C121.779 61.3336 121.86 61.3577 122.563 60.9464C123.025 60.6759 123.404 60.3885 123.404 60.3077ZM128.925 60.3553C128.925 60.0343 128.827 59.7716 128.708 59.7716C128.588 59.7716 128.348 60.0343 128.173 60.3553C127.998 60.6764 128.096 60.9391 128.39 60.9391C128.684 60.9391 128.925 60.6764 128.925 60.3553ZM851.703 47.0522C851.305 46.9397 850.829 46.9536 850.645 47.0828C850.462 47.2122 850.788 47.3042 851.37 47.2872C852.013 47.2686 852.144 47.1764 851.703 47.0522ZM343.385 39.1722C343.559 38.9729 343.476 38.7113 343.199 38.5907C342.922 38.4701 342.554 38.6331 342.379 38.953C342.036 39.5835 342.866 39.7644 343.385 39.1722ZM81.3359 206.198C81.0182 205.93 80.975 205.706 81.2399 205.7C81.5048 205.693 81.257 205.498 80.6892 205.265C79.2326 204.668 80.523 204.157 83.3778 204.2C84.8688 204.222 85.2275 204.315 84.482 204.485C83.4301 204.727 82.6459 205.717 83.5158 205.706C85.1368 205.685 86.3075 205.177 86.0549 204.603C85.8083 204.043 85.8742 204.048 86.5681 204.641C87.511 205.448 91.7122 205.596 92.0753 204.836C92.2598 204.45 92.4843 204.452 93.1658 204.849C94.2406 205.474 94.8748 206.993 93.9619 206.755C93.6063 206.663 93.3958 206.351 93.4942 206.063C93.6192 205.696 93.3658 205.735 92.6513 206.191C91.8354 206.711 90.6512 206.827 86.7716 206.763C83.6866 206.713 81.7028 206.507 81.3359 206.198ZM73.7573 205.34C73.0219 205.02 73.3755 204.155 74.242 204.155C74.8717 204.155 75.4246 205.254 74.9081 205.479C74.6791 205.579 74.1613 205.516 73.7573 205.34ZM85.4382 202.209C84.8276 201.52 84.8914 201.424 85.9955 201.371C86.6813 201.339 87.615 201.283 88.0705 201.248C89.5432 201.135 89.8203 201.491 88.849 202.248C87.622 203.203 86.306 203.188 85.4382 202.209ZM419.872 199.313C419.872 199.219 420.12 199.033 420.424 198.901C420.727 198.769 420.976 198.846 420.976 199.073C420.976 199.299 420.727 199.485 420.424 199.485C420.12 199.485 419.872 199.407 419.872 199.313ZM426.349 199.047C426.724 198.781 427.169 198.662 427.339 198.782C427.509 198.901 427.203 199.119 426.659 199.265C425.872 199.476 425.808 199.432 426.349 199.047ZM130.029 197.976C130.029 197.788 130.412 197.41 130.88 197.136C131.542 196.749 131.879 196.742 132.394 197.105C132.909 197.467 132.873 197.653 132.232 197.938C131.191 198.402 130.029 198.422 130.029 197.976ZM753.329 194.425C753.329 194.211 753.687 194.036 754.125 194.036C754.562 194.036 755.074 194.211 755.262 194.425C755.449 194.64 755.091 194.815 754.466 194.815C753.841 194.815 753.329 194.64 753.329 194.425ZM743.944 194.012C743.944 193.569 745.427 193.524 745.805 193.956C745.954 194.125 745.596 194.289 745.01 194.321C744.423 194.352 743.944 194.213 743.944 194.012ZM196.441 193.384C195.944 192.471 196.701 192.338 198.609 193.001C199.605 193.346 200.171 193.656 199.867 193.688C197.54 193.935 196.7 193.86 196.441 193.384ZM673.829 192.48C673.829 192.266 673.939 192.09 674.073 192.09C674.207 192.09 674.47 192.266 674.658 192.48C674.845 192.694 674.736 192.869 674.414 192.869C674.093 192.869 673.829 192.694 673.829 192.48ZM665.87 192.143C665.632 191.871 665.587 191.544 665.769 191.416C666.263 191.068 666.802 191.58 666.535 192.144C666.348 192.54 666.218 192.54 665.87 192.143ZM667.895 192.222C666.764 191.9 667.112 191.368 668.309 191.589C668.916 191.7 669.413 191.947 669.413 192.136C669.413 192.507 668.982 192.531 667.895 192.222ZM932.572 190.274C931.937 189.826 932.17 189.366 933.032 189.366C933.487 189.366 933.86 189.629 933.86 189.95C933.86 190.558 933.207 190.722 932.572 190.274ZM247.417 187.89C247.268 187.721 247.632 187.556 248.224 187.525C248.817 187.493 249.158 187.632 248.982 187.833C248.591 188.279 247.784 188.309 247.417 187.89ZM252.393 187.222C252.567 186.903 253.117 186.629 253.616 186.612C254.115 186.596 255.641 186.503 257.008 186.407C258.799 186.28 259.261 186.341 258.664 186.625C257.981 186.95 257.973 187.02 258.618 187.025C259.048 187.029 259.245 187.14 259.056 187.274C258.867 187.407 257.219 187.58 255.395 187.659C252.631 187.778 252.13 187.705 252.393 187.222ZM27.089 186.28C26.6807 185.814 27.7193 185.353 28.4547 185.673C29.0721 185.942 28.6667 186.642 27.8936 186.642C27.6258 186.642 27.2637 186.479 27.089 186.28ZM32.3102 176.157C32.3102 175.956 32.5558 175.684 32.856 175.553C33.169 175.417 33.2615 175.573 33.073 175.92C32.7059 176.594 32.3102 176.717 32.3102 176.157ZM36.3588 175.957C36.3588 175.645 36.5699 175.482 36.8279 175.595C37.0859 175.707 37.154 175.962 36.9794 176.161C36.5329 176.67 36.3588 176.613 36.3588 175.957ZM998.454 125.153C997.998 124.945 997.874 124.775 998.178 124.775C998.481 124.775 999.102 124.945 999.558 125.153C1000.01 125.36 1000.14 125.53 999.834 125.53C999.53 125.53 998.909 125.36 998.454 125.153ZM91.383 96.271C91.383 96.1025 91.8799 95.9646 92.4872 95.9646C93.0944 95.9646 93.5913 96.1289 93.5913 96.3296C93.5913 96.5304 93.0944 96.6682 92.4872 96.636C91.8799 96.6037 91.383 96.4395 91.383 96.271ZM114.502 90.5556L113.208 89.8166L116.511 89.5075C118.329 89.3374 121.119 89.1884 122.713 89.1762C124.307 89.164 125.611 89.035 125.611 88.8894C125.612 88.5864 128.9 89.1898 129.414 89.5872C129.6 89.7315 128.986 89.7471 128.05 89.6218C127.001 89.4815 125.728 89.6246 124.737 89.9935C123.852 90.3233 121.823 90.6101 120.229 90.6308C118.635 90.6515 117.331 90.8094 117.331 90.9815C117.331 91.5394 115.83 91.3134 114.502 90.5556ZM107.543 90.6702C107.726 90.5409 108.202 90.5271 108.601 90.6396C109.041 90.7638 108.911 90.856 108.267 90.8747C107.686 90.8916 107.359 90.7996 107.543 90.6702ZM97.4995 85.2948C97.4756 84.8845 97.606 84.6547 97.7894 84.784C97.9729 84.9133 97.9925 85.249 97.833 85.5299C97.6568 85.8404 97.526 85.7481 97.4995 85.2948ZM112.577 82.0238C112.731 81.8479 112.349 81.3972 111.728 81.0222C110.616 80.3512 110.653 80.322 114.014 79.2014C118.062 77.8519 118.435 77.8215 118.435 78.841C118.435 79.3206 118.064 79.6216 117.469 79.6253C116.686 79.6302 116.651 79.6973 117.284 79.9798C117.713 80.1715 118.521 80.2664 119.078 80.1908C119.635 80.1151 120.091 80.2316 120.091 80.4498C120.091 80.668 119.284 80.8153 118.297 80.7772C117.31 80.7392 116.006 80.7285 115.399 80.7535C114.479 80.7913 114.433 80.8618 115.123 81.1761C115.83 81.4985 115.81 81.5542 114.984 81.5593C114.453 81.5628 114.018 81.7405 114.018 81.9545C114.018 82.1685 113.631 82.3436 113.158 82.3436C112.684 82.3436 112.423 82.1997 112.577 82.0238ZM119.636 78.8834C119.081 78.6416 119.103 78.4793 119.74 78.1067C120.633 77.5841 121.345 78.0406 120.73 78.7417C120.511 78.9918 120.029 79.0542 119.636 78.8834ZM100.492 62.4957C100.305 62.2816 100.524 62.1065 100.979 62.1065C101.435 62.1065 101.961 62.2816 102.149 62.4957C102.336 62.7098 102.117 62.8849 101.662 62.8849C101.206 62.8849 100.68 62.7098 100.492 62.4957ZM111.8 60.7533C112.595 60.078 112.914 60.0078 112.914 60.5082C112.914 60.6994 112.506 60.966 112.008 61.1009C111.25 61.3058 111.216 61.2489 111.8 60.7533ZM892.057 54.4729C892.704 54.0167 896.239 53.6593 896.952 53.9778C897.363 54.1612 897.45 54.3312 897.147 54.3557C894.175 54.5959 891.805 54.6505 892.057 54.4729ZM888.706 53.9928C888.247 53.7876 888.59 53.6745 889.672 53.6745C890.595 53.6745 891.35 53.8204 891.35 53.9988C891.35 54.413 889.636 54.4095 888.706 53.9928ZM874.511 53.496C872.148 53.123 866.41 52.8555 855.69 52.6185C852.019 52.5373 848.484 52.2705 847.835 52.0256C847.129 51.7591 844.655 51.6236 841.674 51.6879C838.935 51.7471 836.694 51.7557 836.694 51.7069C836.694 51.5715 839.906 50.4311 840.287 50.4311C840.472 50.4311 840.47 50.6062 840.282 50.8202C840.083 51.0473 840.645 51.2094 841.63 51.2094C842.559 51.2094 843.319 51.0343 843.319 50.8202C843.319 50.6062 843.582 50.4311 843.903 50.4311C844.225 50.4311 844.302 50.65 844.074 50.9175C843.767 51.2772 843.866 51.3013 844.455 51.0099C844.893 50.7931 845.748 50.6358 846.355 50.6604C846.963 50.6849 848.778 50.731 850.39 50.7627C852.002 50.7943 853.206 50.9516 853.065 51.1121C852.924 51.2726 854.338 51.3783 856.207 51.347C858.076 51.3154 860.04 51.4532 860.571 51.6526C861.216 51.8946 861.537 51.8735 861.537 51.5894C861.537 51.3551 861.838 51.2944 862.205 51.4543C862.572 51.6142 864.994 51.7928 867.588 51.8512C870.181 51.9096 872.303 51.9781 872.303 52.0035C872.303 52.0289 873.545 52.1063 875.064 52.1757C876.582 52.2451 877.886 52.3406 877.962 52.388C878.091 52.469 878.66 52.5869 879.618 52.7313C880.057 52.7976 877.466 53.9279 876.996 53.8751C876.844 53.8579 875.726 53.6876 874.511 53.496ZM852.152 51.5502C852.152 51.3629 851.67 51.2097 851.08 51.2097C850.491 51.2097 849.874 51.3629 849.71 51.5502C849.546 51.7375 850.028 51.8907 850.782 51.8907C851.535 51.8907 852.152 51.7375 852.152 51.5502ZM881.683 50.425C881.492 50.2075 881.105 50.1302 880.822 50.2534C880.539 50.3765 880.308 50.3021 880.308 50.0881C880.308 49.3346 881.199 49.3227 881.858 50.0675C882.225 50.4817 882.414 50.8206 882.278 50.8206C882.141 50.8206 881.873 50.6425 881.683 50.425ZM869.864 48.9071C869.283 48.4968 868.691 48.2424 868.55 48.3416C868.41 48.4409 867.085 48.5808 865.606 48.6526C863.045 48.7769 859.869 47.9751 860.674 47.4075C861.319 46.9531 865.131 47.0595 865.964 47.555C866.817 48.0624 868.37 48.0792 869.066 47.5884C869.652 47.1755 872.468 47.266 872.858 47.7104C873.388 48.3152 872.6 49.6528 871.714 49.6528C871.279 49.6528 870.447 49.3173 869.864 48.9071ZM875.563 49.2037C875.328 48.9355 875.41 48.8596 875.768 49.0154C876.098 49.159 876.523 49.0985 876.714 48.881C877.228 48.2942 877.916 48.4019 877.916 49.0692C877.916 49.7548 876.135 49.8565 875.563 49.2037ZM230.105 46.3045C230.289 46.1752 230.765 46.1613 231.163 46.2738C231.604 46.3981 231.473 46.4903 230.83 46.509C230.248 46.5258 229.922 46.4339 230.105 46.3045ZM341.476 35.2536C341.476 35.0395 341.586 34.8644 341.72 34.8644C341.853 34.8644 342.117 35.0395 342.304 35.2536C342.492 35.4676 342.382 35.6427 342.061 35.6427C341.739 35.6427 341.476 35.4676 341.476 35.2536ZM354.35 35.293C353.458 34.8314 353.672 34.1681 354.653 34.349C355.279 34.4644 355.68 34.3056 355.738 33.9199C355.789 33.5832 355.872 33.045 355.922 32.724C355.973 32.4029 356.47 32.1183 357.026 32.0916C357.583 32.0647 358.225 32.0068 358.453 31.9626C358.68 31.9183 359.612 31.741 360.523 31.5684C362.549 31.1846 363.649 30.6113 363.245 30.1503C363.078 29.9605 363.433 29.8052 364.033 29.8052C364.633 29.8052 365.25 30.0241 365.404 30.2917C365.598 30.6297 365.823 30.6506 366.14 30.3606C366.95 29.6185 368.641 29.3869 369.532 29.8958C370.248 30.3043 370.315 30.2941 369.924 29.8363C369.565 29.4166 369.683 29.3464 370.415 29.5444C370.945 29.6879 371.714 29.8052 372.125 29.8052C372.535 29.8052 373.02 30.1374 373.203 30.5436C373.417 31.0182 373.89 31.2165 374.528 31.0989C375.937 30.8391 375.792 29.8769 374.371 30.0612C373.248 30.2067 373.247 30.2014 374.325 29.8405C374.932 29.6371 376.27 29.4584 377.298 29.4434C378.326 29.4282 380.686 29.2442 382.543 29.0343C387.355 28.4902 399.453 27.5367 404.966 27.2672C407.546 27.141 410.776 26.9683 412.143 26.8834C415.021 26.7046 420.704 26.4201 428.153 26.0817C431.038 25.9507 435.013 25.747 436.986 25.6291C441.73 25.3459 449.197 25.3247 450.236 25.5918C450.692 25.7088 452.12 25.939 453.411 26.1034C454.701 26.2678 455.757 26.5311 455.757 26.6886C455.757 26.8461 455.143 27.4079 454.392 27.9371C453.281 28.7203 452.511 28.8921 450.249 28.8609C448.597 28.8378 447.547 28.9824 447.657 29.2167C447.76 29.4334 449.756 29.6251 452.094 29.6427C455.766 29.6703 458.211 30.1738 457.376 30.7302C457.003 30.9791 449.684 31.2251 449.685 30.9887C449.686 30.8729 448.009 30.833 445.959 30.8999C443.909 30.9669 440.806 30.8627 439.064 30.6678C437.322 30.4732 435.779 30.397 435.635 30.4986C435.491 30.6001 434.307 30.7201 433.005 30.7653C431.703 30.8105 429.951 30.9827 429.112 31.1481C428.205 31.327 427.302 31.2827 426.885 31.0387C426.5 30.8131 423.782 30.588 420.846 30.5386C417.212 30.4774 415.622 30.3149 415.864 30.0296C416.059 29.7993 415.797 29.8519 415.282 30.1466C414.637 30.5152 413.644 30.6035 412.099 30.4293C410.624 30.263 409.973 30.3129 410.202 30.5745C410.593 31.0204 410.52 31.0289 405.518 31.1237C403.544 31.161 401.37 31.3293 400.687 31.4976C400.004 31.6659 399.445 31.6605 399.445 31.4856C399.445 31.3106 398.824 31.1675 398.065 31.1675C397.305 31.1675 396.684 31.2988 396.684 31.4593C396.684 31.6199 396.297 31.7512 395.824 31.7512C395.35 31.7512 395.093 31.6033 395.251 31.4224C395.634 30.9854 389.963 31.6272 389.551 32.0675C388.798 32.8735 378.466 33.6902 378.466 32.9438C378.466 32.7161 378.202 32.5296 377.881 32.5296C377.559 32.5296 377.439 32.6926 377.614 32.8919C378.113 33.4615 376.843 33.8122 376.022 33.3315C375.47 33.0091 375.211 33.0288 375.004 33.4089C374.826 33.737 373.917 33.8869 372.456 33.8293C371.206 33.7801 370.184 33.9034 370.184 34.1033C370.184 34.7469 367.348 34.3242 366.797 33.5986C366.504 33.2127 366.024 33.0015 365.731 33.1293C365.438 33.2571 365.324 33.5064 365.479 33.6832C365.635 33.86 365.398 34.103 364.954 34.2231C364.51 34.3432 363.998 34.2712 363.815 34.0631C363.613 33.8324 362.906 33.9117 362.003 34.2661C360.305 34.9332 355.023 35.6418 354.35 35.293ZM346.445 33.5253C346.445 32.8417 346.776 32.7411 347.249 33.2809C347.424 33.4801 347.314 33.7532 347.006 33.8876C346.697 34.022 346.445 33.8594 346.445 33.5253ZM348.525 32.853C348.846 32.6269 349.435 32.5184 349.833 32.612C350.246 32.7092 349.996 32.8856 349.25 33.0232C348.331 33.1925 348.116 33.1418 348.525 32.853ZM538.707 31.8656C538.024 31.7728 537.465 31.5632 537.465 31.3999C537.465 30.9236 539.865 31.1825 540.102 31.6844C540.221 31.9351 540.235 32.1163 540.133 32.0872C540.032 32.0579 539.391 31.9583 538.707 31.8656ZM527.252 30.9727C528.769 30.513 529.641 30.513 528.632 30.9727C528.176 31.1802 527.431 31.3404 526.976 31.3286C526.43 31.3145 526.524 31.1932 527.252 30.9727ZM530.596 31.0089C530.426 30.8148 530.784 30.7477 531.392 30.8597C532.681 31.0974 532.844 31.3618 531.701 31.3618C531.263 31.3618 530.766 31.203 530.596 31.0089ZM459.523 30.1282C458.654 29.5125 459.049 29.4698 465.872 29.4408C469.874 29.4236 473.701 29.3344 474.378 29.2422C475.055 29.15 475.738 29.2216 475.895 29.4012C476.053 29.5807 476.942 29.6906 477.871 29.6452C480.383 29.5227 480.395 30.0892 477.884 30.2581C476.696 30.3379 475.843 30.2684 475.987 30.1042C476.44 29.5872 475.59 29.779 474.725 30.3889C473.786 31.0509 471.454 31.1701 470.938 30.5824C470.711 30.3233 470.233 30.3293 469.514 30.6003C468.292 31.0614 467.141 30.7481 467.703 30.1071C467.949 29.8269 467.813 29.8002 467.298 30.0279C466.872 30.2166 465.156 30.4641 463.486 30.5778C461.096 30.7406 460.252 30.6449 459.523 30.1282ZM503.788 30.5834C503.788 30.3694 503.898 30.1943 504.032 30.1943C504.166 30.1943 504.429 30.3694 504.616 30.5834C504.804 30.7975 504.694 30.9726 504.373 30.9726C504.051 30.9726 503.788 30.7975 503.788 30.5834ZM481.705 29.8051C481.207 29.5784 481.139 29.4254 481.534 29.4218C481.896 29.4183 482.345 29.591 482.533 29.8051C482.957 30.2883 482.766 30.2883 481.705 29.8051ZM697.339 29.752C697.625 29.4262 695.522 29.0429 695.096 29.3432C694.502 29.7617 692.048 29.8407 692.048 29.4414C692.048 29.1944 690.477 29.1348 687.77 29.2793C684.45 29.4564 683.058 29.3652 681.559 28.8722C680.496 28.5228 680.045 28.3172 680.557 28.4154C681.069 28.5135 681.565 28.4415 681.661 28.2557C681.756 28.0697 682.207 27.8607 682.663 27.7911C683.118 27.7216 683.673 27.4895 683.896 27.2754C684.12 27.0614 684.306 27.2698 684.311 27.7388C684.319 28.5448 684.402 28.5608 685.837 28.0323C687.199 27.5308 687.434 27.5431 688.12 28.1527C688.847 28.7989 688.868 28.7988 688.551 28.1527C688.294 27.6271 688.523 27.4716 689.554 27.4716C690.288 27.4716 691.142 27.7781 691.452 28.1527C691.764 28.5306 692.022 28.6172 692.031 28.3473C692.049 27.8376 693.704 27.6451 693.704 28.1527C693.704 28.3132 695.583 28.4344 697.878 28.4221C700.174 28.4096 702.176 28.541 702.327 28.7139C702.479 28.8868 703.135 29.0283 703.785 29.0283C704.73 29.0283 704.829 29.1256 704.277 29.5147C703.586 30.0018 696.921 30.2313 697.339 29.7536V29.752ZM706.402 29.7403C706.402 29.5619 706.589 29.4042 706.816 29.3897C707.044 29.3753 708.025 29.2901 708.997 29.2006C711.181 28.9991 711.959 29.6667 709.858 29.9395C707.78 30.2092 706.402 30.1298 706.402 29.7403ZM666.653 28.443C666.653 28.229 665.721 28.0539 664.582 28.0539C663.444 28.0539 662.329 28.229 662.106 28.443C661.836 28.7025 661.697 28.7025 661.691 28.443C661.679 27.9555 658.371 27.8401 658.371 28.3273C658.371 28.5232 658.145 28.5852 657.869 28.465C657.344 28.2359 652.487 27.8681 647.329 27.6667C645.659 27.6015 644.293 27.5089 644.293 27.4608C644.293 27.1999 637.029 27.1959 636.564 27.4565C635.735 27.9217 630.215 28.2463 630.215 27.8298C630.215 27.632 629.842 27.4701 629.387 27.4701C628.931 27.4701 628.559 27.6391 628.559 27.8457C628.559 28.0802 624.67 28.152 618.207 28.0371C612.514 27.9358 607.256 27.8548 606.524 27.857C605.791 27.8605 604.363 27.6996 603.349 27.5024C602.241 27.2867 601.507 27.2853 601.507 27.4988C601.507 27.8525 599.576 27.7952 599.052 27.426C598.901 27.3195 596.389 27.2946 593.469 27.3707C589.95 27.4625 587.898 27.3552 587.381 27.0527C586.773 26.6972 586.599 26.7144 586.592 27.1304C586.586 27.4679 586.434 27.5149 586.178 27.258C585.934 27.014 582.794 26.8321 578.319 26.803C574.22 26.7765 561.798 26.6543 550.715 26.5319C539.632 26.4095 525.409 26.2861 519.108 26.2576C512.808 26.2294 507.652 26.0962 507.651 25.9622C507.651 25.8282 506.284 25.7186 504.615 25.7186C502.945 25.7186 501.58 25.85 501.58 26.0105C501.58 26.1711 501.317 26.3024 500.995 26.3024C500.674 26.3024 500.564 26.1273 500.752 25.9132C500.939 25.6992 500.706 25.5241 500.232 25.5241C499.759 25.5242 499.372 25.3491 499.372 25.1351C499.372 24.921 499.108 24.7459 498.787 24.7459C498.465 24.7459 498.356 24.921 498.543 25.1351C498.745 25.3649 498.137 25.5218 497.058 25.5183C495.675 25.5134 495.432 25.4206 496.059 25.1351C496.671 24.8565 496.696 24.7563 496.158 24.7519C495.596 24.7469 495.618 24.6117 496.256 24.1621C496.712 23.8411 497.599 23.5784 498.228 23.5784C498.857 23.5784 499.372 23.3914 499.372 23.163C499.372 22.9166 499.849 22.8544 500.545 23.0101C501.334 23.1868 501.595 23.1317 501.34 22.8418C501.133 22.6047 501.11 22.4109 501.289 22.4109C501.469 22.4109 501.804 22.771 502.035 23.2113L502.456 24.0117L503.911 23.2044C504.909 22.6511 505.488 22.5348 505.751 22.8347C506.023 23.145 506.269 23.1187 506.597 22.7443C506.974 22.3152 510.761 22.219 526.817 22.2308C537.684 22.2391 551.046 22.3578 556.512 22.4953C561.978 22.6328 571.046 22.8469 576.663 22.971C596.947 23.4191 602.172 23.5819 602.627 23.78C603.643 24.2224 608.091 24.6149 608.765 24.3214C609.18 24.1406 609.664 24.2052 609.911 24.4746C610.231 24.8222 610.478 24.7923 610.884 24.3567C611.183 24.0357 611.431 23.9481 611.436 24.1621C611.442 24.4078 614.857 24.534 620.692 24.5043C629.915 24.4573 645.673 25.0856 645.674 25.5003C645.674 25.6205 647.6 25.6991 649.952 25.6751C653.985 25.6339 663.273 26.1665 664.92 26.5334C665.528 26.6687 665.539 26.8142 664.98 27.2891C664.417 27.7676 664.431 27.8453 665.056 27.7061C665.479 27.6121 666.518 27.4278 667.365 27.2966C668.314 27.1497 668.783 26.8758 668.587 26.5831C668.411 26.3218 668.557 26.3822 668.911 26.7171C669.431 27.2098 670.141 27.2702 672.62 27.033C674.363 26.8663 676.103 26.8973 676.654 27.1049C677.186 27.3058 678.321 27.494 679.176 27.5231C680.608 27.5719 680.626 27.5901 679.399 27.753C678.368 27.89 678.243 28.0087 678.847 28.2778C679.7 28.6587 678.983 28.7064 671.207 28.7858C668.495 28.8133 666.653 28.6748 666.653 28.443ZM506.197 24.9427C506.023 24.6228 505.658 24.4581 505.387 24.5765C504.607 24.9161 504.81 25.5242 505.703 25.5242C506.196 25.5242 506.39 25.2959 506.197 24.9427ZM473.998 26.273C474.566 25.5247 474.533 25.4397 473.751 25.651C472.972 25.8619 472.937 25.7767 473.498 25.037L474.15 24.1781L474.699 25.0458C475.33 26.0412 476.47 26.186 476.936 25.3296C477.111 25.0086 477.054 24.7459 476.811 24.7459C476.567 24.7459 476.368 24.481 476.368 24.1573C476.368 23.6788 476.867 23.6154 479.036 23.8183C480.859 23.9887 481.705 23.9286 481.705 23.6285C481.705 23.3845 482.578 23.1892 483.67 23.1892C484.958 23.1892 485.505 23.3366 485.259 23.6172C484.993 23.9215 485.219 23.9189 486.042 23.6082C487.005 23.2452 487.146 23.2715 486.878 23.764C486.701 24.09 486.334 24.3567 486.062 24.3567C485.791 24.3567 485.569 24.5319 485.569 24.7459C485.569 25.5571 486.567 25.0883 487.226 23.9675C487.994 22.6605 488.014 22.6533 489.398 23.1755C490.096 23.4388 490.311 23.8501 490.121 24.5537C489.971 25.1053 490.066 25.5055 490.331 25.4431C490.597 25.3807 490.938 25.5008 491.09 25.71C491.254 25.935 489.941 26.1173 487.878 26.1564C484.689 26.2167 484.338 26.1423 483.787 25.2896C483.193 24.3701 481.153 23.9669 481.153 24.7689C481.153 24.9956 481.398 25.074 481.699 24.9433C482.007 24.809 482.107 24.9581 481.929 25.2849C481.745 25.6234 481.251 25.7661 480.741 25.6281C480.173 25.4746 480.004 25.5473 480.257 25.8359C480.701 26.3425 478.866 26.7165 476.736 26.5536C475.977 26.4956 474.902 26.6037 474.348 26.794C473.445 27.1039 473.408 27.0498 473.998 26.273ZM489.101 24.8108C489.258 24.6324 489.035 24.4865 488.606 24.4865C488.177 24.4865 487.954 24.6324 488.111 24.8108C488.267 24.9891 488.49 25.1351 488.606 25.1351C488.722 25.1351 488.945 24.9891 489.101 24.8108ZM466.561 26.3468C466.395 26.1571 466.754 25.9106 467.359 25.7991C468.092 25.664 468.347 25.3893 468.122 24.9765C467.937 24.6356 468.018 24.3567 468.304 24.3567C469.061 24.3567 468.939 25.628 468.126 26.2007C467.302 26.7815 466.97 26.8126 466.561 26.3468ZM469.947 25.2648C470.102 24.9794 470.3 24.7459 470.387 24.7459C470.474 24.7459 470.672 24.9794 470.828 25.2648C470.983 25.5502 470.785 25.7837 470.387 25.7837C469.99 25.7837 469.791 25.5502 469.947 25.2648ZM472.076 24.1745C472.665 23.8602 473.692 23.5976 474.357 23.5907C475.674 23.577 476.513 24.1674 475.688 24.5269C475.406 24.65 475.079 24.5495 474.963 24.3033C474.804 23.9671 474.458 23.9665 473.572 24.2998C471.875 24.9401 470.807 24.8498 472.076 24.1734V24.1745ZM464.74 24.1216C464.923 23.9922 465.4 23.9784 465.798 24.0909C466.238 24.2151 466.108 24.3073 465.464 24.326C464.882 24.3428 464.556 24.2509 464.74 24.1216ZM493.851 23.9675C493.143 23.6451 493.163 23.5894 493.989 23.5843C494.52 23.5807 494.955 23.7534 494.955 23.9675C494.955 24.4421 494.893 24.4421 493.851 23.9675ZM490.886 23.3748C490.622 22.8911 490.764 22.8578 491.655 23.1938C492.935 23.6767 493.056 23.9675 491.977 23.9675C491.554 23.9675 491.063 23.7007 490.886 23.3748Z" fill="url(#paint0_linear_2_3)"/>
</g>
<defs>
<linearGradient id="paint0_linear_2_3" x1="-3.05176e-05" y1="116.5" x2="1000" y2="116.5" gradientUnits="userSpaceOnUse">
<stop stop-color="#3275F5"/>
<stop offset="1" stop-color="#9842DB"/>
</linearGradient>
<clipPath id="clip0_2_3">
<rect width="1000" height="211" fill="white"/>
</clipPath>
</defs>
</svg>
